<?xml version="1.0" standalone="no"?>
<!DOCTYPE svg PUBLIC "-//W3C//DTD SVG 20010904//EN" "http://www.w3.org/TR/2001/REC-SVG-20010904/DTD/svg10.dtd">
<!-- Created using Krita: http://krita.org -->
<svg xmlns="http://www.w3.org/2000/svg" 
    xmlns:xlink="http://www.w3.org/1999/xlink"
    xmlns:krita="http://krita.org/namespaces/svg/krita"
    xmlns:sodipodi="http://sodipodi.sourceforge.net/DTD/sodipodi-0.dtd"
    width="120pt"
    height="120pt"
    viewBox="0 0 120 120">
<defs>
  <linearGradient id="gradient0" gradientUnits="objectBoundingBox" x1="0" y1="0" x2="1" y2="1" spreadMethod="pad">
   <stop stop-color="#000000" offset="0" stop-opacity="0"/>
   <stop stop-color="#068606" offset="1" stop-opacity="1"/>
  </linearGradient>
  <radialGradient id="gradient1" gradientUnits="objectBoundingBox" cx="0" cy="0" fx="0" fy="0" r="0.88992719466" spreadMethod="pad">
   <stop stop-color="#000000" offset="0" stop-opacity="0"/>
   <stop stop-color="#1791c2" offset="1" stop-opacity="1"/>
  </radialGradient>
  <linearGradient id="gradient2" gradientUnits="objectBoundingBox" x1="0.79847694105" y1="0.78774891645" x2="0.14904855097" y2="0.11140089169" spreadMethod="pad">
   <stop stop-color="#ff0000" offset="0" stop-opacity="1"/>
   <stop stop-color="#000000" offset="1" stop-opacity="0"/>
  </linearGradient>
  <linearGradient id="gradient3" gradientUnits="objectBoundingBox" x1="0.96465587138" y1="0.94583461794" x2="0.22907713345" y2="0.27726160876" spreadMethod="pad">
   <stop stop-color="#fadb02" offset="0" stop-opacity="1"/>
   <stop stop-color="#000000" offset="1" stop-opacity="0"/>
  </linearGradient>
 </defs>
<g id="group0" transform="matrix(1.703217343 0 0 1.703217343 11.68010925 3.1517317689)" fill="none">
  <path id="shape0" transform="matrix(-0.75448829342 0.65631357082 -0.656313546 -0.7544882649 59.839563002 36.433091986)" fill="url(#gradient0)" fill-rule="evenodd" d="M17.5175 0L18.1113 18.2397L0 19.1296C11.4488 17.2037 15.5774 9.47005 17.5175 0Z"/>
  <circle id="shape0" transform="matrix(-0.81858662336 0.57438309521 -0.57438309521 -0.81858662336 39.568582379 36.441969243)" r="8.116664479" cx="8.116664479" cy="8.116664479" fill="url(#gradient1)" fill-rule="evenodd"/>
  <path id="shape1" transform="matrix(-0.21010210675 -0.97767944887 0.97767944887 -0.21010210675 5.3787716657 66.753980008)" fill="url(#gradient2)" fill-rule="evenodd" d="M23.7696 0L25.6008 27.0477L0 26.5507C13.3539 20.1091 18.3996 14.4646 23.7696 0Z"/>
  <path id="shape01" transform="matrix(0.92834592339 0.37171744947 -0.37171744194 0.92834590458 14.000977134 0)" fill="url(#gradient3)" fill-rule="evenodd" d="M20.7868 0L22.6016 23.1306L0 24.3161C11.2793 19.9103 18.9375 12.4251 20.7868 0Z"/>
 </g>
</svg>
